<mxfile host="app.diagrams.net" agent="Mozilla/5.0 (Windows NT 10.0; Win64; x64) AppleWebKit/537.36 (KHTML, like Gecko) Chrome/127.0.0.0 Safari/537.36" version="24.7.7">
  <diagram id="C5RBs43oDa-KdzZeNtuy" name="Page-1">
    <mxGraphModel dx="3434" dy="2573" grid="1" gridSize="10" guides="1" tooltips="1" connect="1" arrows="1" fold="1" page="1" pageScale="1" pageWidth="827" pageHeight="1169" math="0" shadow="0">
      <root>
        <mxCell id="WIyWlLk6GJQsqaUBKTNV-0" />
        <mxCell id="WIyWlLk6GJQsqaUBKTNV-1" parent="WIyWlLk6GJQsqaUBKTNV-0" />
        <mxCell id="WIyWlLk6GJQsqaUBKTNV-2" value="" style="rounded=0;html=1;jettySize=auto;orthogonalLoop=1;fontSize=11;endArrow=block;endFill=0;endSize=8;strokeWidth=1;shadow=0;labelBackgroundColor=none;edgeStyle=orthogonalEdgeStyle;" parent="WIyWlLk6GJQsqaUBKTNV-1" source="WIyWlLk6GJQsqaUBKTNV-3" target="WIyWlLk6GJQsqaUBKTNV-6" edge="1">
          <mxGeometry relative="1" as="geometry">
            <Array as="points">
              <mxPoint x="280" y="130" />
              <mxPoint x="-80" y="130" />
            </Array>
          </mxGeometry>
        </mxCell>
        <mxCell id="WIyWlLk6GJQsqaUBKTNV-3" value="slice[2,8,1,5,9,3,7,11,40,4]" style="rounded=1;whiteSpace=wrap;html=1;fontSize=12;glass=0;strokeWidth=1;shadow=0;" parent="WIyWlLk6GJQsqaUBKTNV-1" vertex="1">
          <mxGeometry x="150" y="-60" width="240" height="100" as="geometry" />
        </mxCell>
        <mxCell id="WIyWlLk6GJQsqaUBKTNV-6" value="x = 0" style="rhombus;whiteSpace=wrap;html=1;shadow=0;fontFamily=Helvetica;fontSize=12;align=center;strokeWidth=1;spacing=6;spacingTop=-4;" parent="WIyWlLk6GJQsqaUBKTNV-1" vertex="1">
          <mxGeometry x="-120" y="-50" width="90" height="80" as="geometry" />
        </mxCell>
        <mxCell id="w1tVW2Rco9mWPTWuxNKv-0" value="Алгоритм.&lt;div&gt;1. Запуск программы&lt;/div&gt;&lt;div&gt;2. Объявить массив и переменную со значением 0&lt;br&gt;&lt;div&gt;3. Разбить числа по порядку расположения&lt;/div&gt;&lt;div&gt;4. Сравнивать числа с последующими&lt;/div&gt;&lt;div&gt;5. Прибавлять переменную, если число больше&lt;/div&gt;&lt;div&gt;6. Вывод на экран итогового числа&lt;/div&gt;&lt;div&gt;7. Прекращение программы&lt;/div&gt;&lt;div&gt;&lt;br&gt;&lt;/div&gt;&lt;/div&gt;" style="rounded=0;whiteSpace=wrap;html=1;align=left;" vertex="1" parent="WIyWlLk6GJQsqaUBKTNV-1">
          <mxGeometry x="-680" width="420" height="240" as="geometry" />
        </mxCell>
        <mxCell id="w1tVW2Rco9mWPTWuxNKv-6" value="" style="edgeStyle=orthogonalEdgeStyle;rounded=0;orthogonalLoop=1;jettySize=auto;html=1;entryX=0.5;entryY=0;entryDx=0;entryDy=0;" edge="1" parent="WIyWlLk6GJQsqaUBKTNV-1" source="WIyWlLk6GJQsqaUBKTNV-6" target="w1tVW2Rco9mWPTWuxNKv-1">
          <mxGeometry relative="1" as="geometry">
            <mxPoint y="140" as="sourcePoint" />
            <mxPoint x="80" y="350" as="targetPoint" />
            <Array as="points">
              <mxPoint x="-80" y="130" />
              <mxPoint x="80" y="130" />
            </Array>
          </mxGeometry>
        </mxCell>
        <mxCell id="w1tVW2Rco9mWPTWuxNKv-8" style="edgeStyle=orthogonalEdgeStyle;rounded=0;orthogonalLoop=1;jettySize=auto;html=1;" edge="1" parent="WIyWlLk6GJQsqaUBKTNV-1" source="w1tVW2Rco9mWPTWuxNKv-1">
          <mxGeometry relative="1" as="geometry">
            <mxPoint x="80" y="330" as="targetPoint" />
          </mxGeometry>
        </mxCell>
        <mxCell id="w1tVW2Rco9mWPTWuxNKv-1" value="2&amp;lt;8?" style="rounded=1;whiteSpace=wrap;html=1;" vertex="1" parent="WIyWlLk6GJQsqaUBKTNV-1">
          <mxGeometry x="20" y="180" width="120" height="70" as="geometry" />
        </mxCell>
        <mxCell id="w1tVW2Rco9mWPTWuxNKv-7" value="Меньше" style="text;html=1;align=center;verticalAlign=middle;resizable=0;points=[];autosize=1;strokeColor=none;fillColor=none;" vertex="1" parent="WIyWlLk6GJQsqaUBKTNV-1">
          <mxGeometry x="-25" y="288" width="70" height="30" as="geometry" />
        </mxCell>
        <mxCell id="w1tVW2Rco9mWPTWuxNKv-16" style="edgeStyle=orthogonalEdgeStyle;rounded=0;orthogonalLoop=1;jettySize=auto;html=1;exitX=0.5;exitY=1;exitDx=0;exitDy=0;" edge="1" parent="WIyWlLk6GJQsqaUBKTNV-1" source="w1tVW2Rco9mWPTWuxNKv-11" target="w1tVW2Rco9mWPTWuxNKv-17">
          <mxGeometry relative="1" as="geometry">
            <mxPoint x="-125" y="470" as="targetPoint" />
          </mxGeometry>
        </mxCell>
        <mxCell id="w1tVW2Rco9mWPTWuxNKv-11" value="x = 8" style="rhombus;whiteSpace=wrap;html=1;" vertex="1" parent="WIyWlLk6GJQsqaUBKTNV-1">
          <mxGeometry x="-170" y="280" width="90" height="80" as="geometry" />
        </mxCell>
        <mxCell id="w1tVW2Rco9mWPTWuxNKv-20" style="edgeStyle=orthogonalEdgeStyle;rounded=0;orthogonalLoop=1;jettySize=auto;html=1;" edge="1" parent="WIyWlLk6GJQsqaUBKTNV-1" source="w1tVW2Rco9mWPTWuxNKv-17">
          <mxGeometry relative="1" as="geometry">
            <mxPoint x="-125" y="580" as="targetPoint" />
          </mxGeometry>
        </mxCell>
        <mxCell id="w1tVW2Rco9mWPTWuxNKv-17" value="8&amp;lt;1?" style="rounded=1;whiteSpace=wrap;html=1;" vertex="1" parent="WIyWlLk6GJQsqaUBKTNV-1">
          <mxGeometry x="-185" y="440" width="120" height="50" as="geometry" />
        </mxCell>
        <mxCell id="w1tVW2Rco9mWPTWuxNKv-18" value="Запуск" style="ellipse;whiteSpace=wrap;html=1;" vertex="1" parent="WIyWlLk6GJQsqaUBKTNV-1">
          <mxGeometry x="210" y="-200" width="120" height="80" as="geometry" />
        </mxCell>
        <mxCell id="w1tVW2Rco9mWPTWuxNKv-19" value="" style="endArrow=none;html=1;rounded=0;entryX=0.5;entryY=1;entryDx=0;entryDy=0;" edge="1" parent="WIyWlLk6GJQsqaUBKTNV-1" source="WIyWlLk6GJQsqaUBKTNV-3" target="w1tVW2Rco9mWPTWuxNKv-18">
          <mxGeometry width="50" height="50" relative="1" as="geometry">
            <mxPoint x="380" y="200" as="sourcePoint" />
            <mxPoint x="430" y="150" as="targetPoint" />
          </mxGeometry>
        </mxCell>
        <mxCell id="w1tVW2Rco9mWPTWuxNKv-21" value="" style="endArrow=none;html=1;rounded=0;" edge="1" parent="WIyWlLk6GJQsqaUBKTNV-1">
          <mxGeometry width="50" height="50" relative="1" as="geometry">
            <mxPoint x="-210" y="580" as="sourcePoint" />
            <mxPoint x="-120" y="580" as="targetPoint" />
            <Array as="points" />
          </mxGeometry>
        </mxCell>
        <mxCell id="w1tVW2Rco9mWPTWuxNKv-24" value="Больше" style="text;html=1;align=center;verticalAlign=middle;whiteSpace=wrap;rounded=0;" vertex="1" parent="WIyWlLk6GJQsqaUBKTNV-1">
          <mxGeometry x="-210" y="540" width="60" height="30" as="geometry" />
        </mxCell>
        <mxCell id="w1tVW2Rco9mWPTWuxNKv-26" value="continue" style="rhombus;whiteSpace=wrap;html=1;" vertex="1" parent="WIyWlLk6GJQsqaUBKTNV-1">
          <mxGeometry x="-270" y="540" width="80" height="80" as="geometry" />
        </mxCell>
        <mxCell id="w1tVW2Rco9mWPTWuxNKv-27" value="" style="endArrow=none;html=1;rounded=0;entryX=0.5;entryY=1;entryDx=0;entryDy=0;" edge="1" parent="WIyWlLk6GJQsqaUBKTNV-1" source="w1tVW2Rco9mWPTWuxNKv-28" target="w1tVW2Rco9mWPTWuxNKv-26">
          <mxGeometry width="50" height="50" relative="1" as="geometry">
            <mxPoint x="-230" y="760" as="sourcePoint" />
            <mxPoint x="280" y="450" as="targetPoint" />
          </mxGeometry>
        </mxCell>
        <mxCell id="w1tVW2Rco9mWPTWuxNKv-29" value="" style="endArrow=none;html=1;rounded=0;entryX=0.5;entryY=1;entryDx=0;entryDy=0;" edge="1" parent="WIyWlLk6GJQsqaUBKTNV-1" target="w1tVW2Rco9mWPTWuxNKv-28">
          <mxGeometry width="50" height="50" relative="1" as="geometry">
            <mxPoint x="-230" y="760" as="sourcePoint" />
            <mxPoint x="-230" y="620" as="targetPoint" />
          </mxGeometry>
        </mxCell>
        <mxCell id="w1tVW2Rco9mWPTWuxNKv-28" value="8&amp;lt;5?" style="rounded=1;whiteSpace=wrap;html=1;" vertex="1" parent="WIyWlLk6GJQsqaUBKTNV-1">
          <mxGeometry x="-290" y="700" width="120" height="60" as="geometry" />
        </mxCell>
        <mxCell id="w1tVW2Rco9mWPTWuxNKv-30" value="" style="endArrow=none;html=1;rounded=0;entryX=0.5;entryY=1;entryDx=0;entryDy=0;" edge="1" parent="WIyWlLk6GJQsqaUBKTNV-1" target="w1tVW2Rco9mWPTWuxNKv-28">
          <mxGeometry width="50" height="50" relative="1" as="geometry">
            <mxPoint x="-230" y="860" as="sourcePoint" />
            <mxPoint x="280" y="550" as="targetPoint" />
          </mxGeometry>
        </mxCell>
        <mxCell id="w1tVW2Rco9mWPTWuxNKv-32" value="" style="endArrow=none;html=1;rounded=0;" edge="1" parent="WIyWlLk6GJQsqaUBKTNV-1">
          <mxGeometry width="50" height="50" relative="1" as="geometry">
            <mxPoint x="-230" y="860" as="sourcePoint" />
            <mxPoint x="-230" y="860" as="targetPoint" />
          </mxGeometry>
        </mxCell>
        <mxCell id="w1tVW2Rco9mWPTWuxNKv-33" value="" style="endArrow=none;html=1;rounded=0;" edge="1" parent="WIyWlLk6GJQsqaUBKTNV-1">
          <mxGeometry width="50" height="50" relative="1" as="geometry">
            <mxPoint x="-310" y="860" as="sourcePoint" />
            <mxPoint x="-230" y="860" as="targetPoint" />
          </mxGeometry>
        </mxCell>
        <mxCell id="w1tVW2Rco9mWPTWuxNKv-37" value="" style="endArrow=none;html=1;rounded=0;" edge="1" parent="WIyWlLk6GJQsqaUBKTNV-1" target="w1tVW2Rco9mWPTWuxNKv-38">
          <mxGeometry width="50" height="50" relative="1" as="geometry">
            <mxPoint x="-310" y="860" as="sourcePoint" />
            <mxPoint x="-230" y="860" as="targetPoint" />
          </mxGeometry>
        </mxCell>
        <mxCell id="w1tVW2Rco9mWPTWuxNKv-38" value="continue" style="rhombus;whiteSpace=wrap;html=1;" vertex="1" parent="WIyWlLk6GJQsqaUBKTNV-1">
          <mxGeometry x="-340" y="820" width="80" height="80" as="geometry" />
        </mxCell>
        <mxCell id="w1tVW2Rco9mWPTWuxNKv-40" value="Меньше" style="text;html=1;align=center;verticalAlign=middle;whiteSpace=wrap;rounded=0;" vertex="1" parent="WIyWlLk6GJQsqaUBKTNV-1">
          <mxGeometry x="-290" y="820" width="60" height="30" as="geometry" />
        </mxCell>
        <mxCell id="w1tVW2Rco9mWPTWuxNKv-41" value="" style="endArrow=none;html=1;rounded=0;" edge="1" parent="WIyWlLk6GJQsqaUBKTNV-1">
          <mxGeometry width="50" height="50" relative="1" as="geometry">
            <mxPoint x="-300" y="980" as="sourcePoint" />
            <mxPoint x="-300" y="900" as="targetPoint" />
          </mxGeometry>
        </mxCell>
        <mxCell id="w1tVW2Rco9mWPTWuxNKv-42" value="8&amp;lt;9?" style="rounded=1;whiteSpace=wrap;html=1;" vertex="1" parent="WIyWlLk6GJQsqaUBKTNV-1">
          <mxGeometry x="-360" y="940" width="120" height="60" as="geometry" />
        </mxCell>
        <mxCell id="w1tVW2Rco9mWPTWuxNKv-44" value="x=9" style="rhombus;whiteSpace=wrap;html=1;" vertex="1" parent="WIyWlLk6GJQsqaUBKTNV-1">
          <mxGeometry x="-400" y="1040" width="80" height="80" as="geometry" />
        </mxCell>
        <mxCell id="w1tVW2Rco9mWPTWuxNKv-45" value="" style="endArrow=none;html=1;rounded=0;entryX=0.5;entryY=1;entryDx=0;entryDy=0;" edge="1" parent="WIyWlLk6GJQsqaUBKTNV-1" target="w1tVW2Rco9mWPTWuxNKv-42">
          <mxGeometry width="50" height="50" relative="1" as="geometry">
            <mxPoint x="-300" y="1080" as="sourcePoint" />
            <mxPoint x="280" y="950" as="targetPoint" />
          </mxGeometry>
        </mxCell>
        <mxCell id="w1tVW2Rco9mWPTWuxNKv-46" value="" style="endArrow=none;html=1;rounded=0;entryX=1;entryY=0.5;entryDx=0;entryDy=0;" edge="1" parent="WIyWlLk6GJQsqaUBKTNV-1" target="w1tVW2Rco9mWPTWuxNKv-44">
          <mxGeometry width="50" height="50" relative="1" as="geometry">
            <mxPoint x="-300" y="1080" as="sourcePoint" />
            <mxPoint x="-290" y="1080" as="targetPoint" />
          </mxGeometry>
        </mxCell>
        <mxCell id="w1tVW2Rco9mWPTWuxNKv-50" value="Меньше" style="text;html=1;align=center;verticalAlign=middle;whiteSpace=wrap;rounded=0;" vertex="1" parent="WIyWlLk6GJQsqaUBKTNV-1">
          <mxGeometry x="-360" y="1020" width="60" height="30" as="geometry" />
        </mxCell>
        <mxCell id="w1tVW2Rco9mWPTWuxNKv-51" value="9&amp;lt;3?" style="rounded=1;whiteSpace=wrap;html=1;" vertex="1" parent="WIyWlLk6GJQsqaUBKTNV-1">
          <mxGeometry x="-420" y="1160" width="120" height="60" as="geometry" />
        </mxCell>
        <mxCell id="w1tVW2Rco9mWPTWuxNKv-52" value="" style="endArrow=none;html=1;rounded=0;entryX=0.5;entryY=0;entryDx=0;entryDy=0;exitX=0.5;exitY=1;exitDx=0;exitDy=0;" edge="1" parent="WIyWlLk6GJQsqaUBKTNV-1" source="w1tVW2Rco9mWPTWuxNKv-44" target="w1tVW2Rco9mWPTWuxNKv-51">
          <mxGeometry width="50" height="50" relative="1" as="geometry">
            <mxPoint x="230" y="1000" as="sourcePoint" />
            <mxPoint x="280" y="950" as="targetPoint" />
          </mxGeometry>
        </mxCell>
        <mxCell id="w1tVW2Rco9mWPTWuxNKv-54" value="continue" style="rhombus;whiteSpace=wrap;html=1;" vertex="1" parent="WIyWlLk6GJQsqaUBKTNV-1">
          <mxGeometry x="-480" y="1260" width="80" height="80" as="geometry" />
        </mxCell>
        <mxCell id="w1tVW2Rco9mWPTWuxNKv-56" value="" style="endArrow=none;html=1;rounded=0;entryX=0.5;entryY=1;entryDx=0;entryDy=0;" edge="1" parent="WIyWlLk6GJQsqaUBKTNV-1" target="w1tVW2Rco9mWPTWuxNKv-51">
          <mxGeometry width="50" height="50" relative="1" as="geometry">
            <mxPoint x="-360" y="1300" as="sourcePoint" />
            <mxPoint x="-100" y="1190" as="targetPoint" />
          </mxGeometry>
        </mxCell>
        <mxCell id="w1tVW2Rco9mWPTWuxNKv-57" value="" style="endArrow=none;html=1;rounded=0;entryX=1;entryY=0.5;entryDx=0;entryDy=0;" edge="1" parent="WIyWlLk6GJQsqaUBKTNV-1" target="w1tVW2Rco9mWPTWuxNKv-54">
          <mxGeometry width="50" height="50" relative="1" as="geometry">
            <mxPoint x="-360" y="1300" as="sourcePoint" />
            <mxPoint x="-100" y="1190" as="targetPoint" />
          </mxGeometry>
        </mxCell>
        <mxCell id="w1tVW2Rco9mWPTWuxNKv-60" value="Меньше" style="text;html=1;align=center;verticalAlign=middle;whiteSpace=wrap;rounded=0;" vertex="1" parent="WIyWlLk6GJQsqaUBKTNV-1">
          <mxGeometry x="-420" y="1260" width="60" height="30" as="geometry" />
        </mxCell>
        <mxCell id="w1tVW2Rco9mWPTWuxNKv-61" value="" style="endArrow=none;html=1;rounded=0;entryX=0.5;entryY=1;entryDx=0;entryDy=0;" edge="1" parent="WIyWlLk6GJQsqaUBKTNV-1" target="w1tVW2Rco9mWPTWuxNKv-54">
          <mxGeometry width="50" height="50" relative="1" as="geometry">
            <mxPoint x="-440" y="1420" as="sourcePoint" />
            <mxPoint x="-100" y="1190" as="targetPoint" />
          </mxGeometry>
        </mxCell>
        <mxCell id="w1tVW2Rco9mWPTWuxNKv-62" value="9&amp;lt;7?" style="rounded=1;whiteSpace=wrap;html=1;" vertex="1" parent="WIyWlLk6GJQsqaUBKTNV-1">
          <mxGeometry x="-500" y="1400" width="120" height="60" as="geometry" />
        </mxCell>
        <mxCell id="w1tVW2Rco9mWPTWuxNKv-63" value="" style="endArrow=none;html=1;rounded=0;entryX=0.5;entryY=1;entryDx=0;entryDy=0;" edge="1" parent="WIyWlLk6GJQsqaUBKTNV-1" target="w1tVW2Rco9mWPTWuxNKv-62">
          <mxGeometry width="50" height="50" relative="1" as="geometry">
            <mxPoint x="-440" y="1560" as="sourcePoint" />
            <mxPoint x="150" y="1300" as="targetPoint" />
          </mxGeometry>
        </mxCell>
        <mxCell id="w1tVW2Rco9mWPTWuxNKv-64" value="continue" style="rhombus;whiteSpace=wrap;html=1;" vertex="1" parent="WIyWlLk6GJQsqaUBKTNV-1">
          <mxGeometry x="-420" y="1520" width="80" height="80" as="geometry" />
        </mxCell>
        <mxCell id="w1tVW2Rco9mWPTWuxNKv-66" value="" style="endArrow=none;html=1;rounded=0;exitX=0;exitY=0.5;exitDx=0;exitDy=0;" edge="1" parent="WIyWlLk6GJQsqaUBKTNV-1" source="w1tVW2Rco9mWPTWuxNKv-64">
          <mxGeometry width="50" height="50" relative="1" as="geometry">
            <mxPoint x="70" y="1460" as="sourcePoint" />
            <mxPoint x="-440" y="1560" as="targetPoint" />
          </mxGeometry>
        </mxCell>
        <mxCell id="w1tVW2Rco9mWPTWuxNKv-68" value="Больше" style="text;html=1;align=center;verticalAlign=middle;whiteSpace=wrap;rounded=0;" vertex="1" parent="WIyWlLk6GJQsqaUBKTNV-1">
          <mxGeometry x="-440" y="1500" width="60" height="30" as="geometry" />
        </mxCell>
        <mxCell id="w1tVW2Rco9mWPTWuxNKv-70" value="" style="endArrow=none;html=1;rounded=0;entryX=0.5;entryY=1;entryDx=0;entryDy=0;" edge="1" parent="WIyWlLk6GJQsqaUBKTNV-1" target="w1tVW2Rco9mWPTWuxNKv-64">
          <mxGeometry width="50" height="50" relative="1" as="geometry">
            <mxPoint x="-380" y="1690" as="sourcePoint" />
            <mxPoint x="120" y="1510" as="targetPoint" />
          </mxGeometry>
        </mxCell>
        <mxCell id="w1tVW2Rco9mWPTWuxNKv-71" value="9&amp;lt;11?" style="rounded=1;whiteSpace=wrap;html=1;" vertex="1" parent="WIyWlLk6GJQsqaUBKTNV-1">
          <mxGeometry x="-440" y="1660" width="120" height="60" as="geometry" />
        </mxCell>
        <mxCell id="w1tVW2Rco9mWPTWuxNKv-72" value="" style="endArrow=none;html=1;rounded=0;entryX=0.5;entryY=1;entryDx=0;entryDy=0;" edge="1" parent="WIyWlLk6GJQsqaUBKTNV-1" target="w1tVW2Rco9mWPTWuxNKv-71">
          <mxGeometry width="50" height="50" relative="1" as="geometry">
            <mxPoint x="-380" y="1780" as="sourcePoint" />
            <mxPoint x="120" y="1510" as="targetPoint" />
          </mxGeometry>
        </mxCell>
        <mxCell id="w1tVW2Rco9mWPTWuxNKv-74" value="x=11" style="rhombus;whiteSpace=wrap;html=1;" vertex="1" parent="WIyWlLk6GJQsqaUBKTNV-1">
          <mxGeometry x="-490" y="1740" width="80" height="80" as="geometry" />
        </mxCell>
        <mxCell id="w1tVW2Rco9mWPTWuxNKv-75" value="" style="endArrow=none;html=1;rounded=0;entryX=1;entryY=0.5;entryDx=0;entryDy=0;" edge="1" parent="WIyWlLk6GJQsqaUBKTNV-1" target="w1tVW2Rco9mWPTWuxNKv-74">
          <mxGeometry width="50" height="50" relative="1" as="geometry">
            <mxPoint x="-380" y="1780" as="sourcePoint" />
            <mxPoint x="120" y="1620" as="targetPoint" />
          </mxGeometry>
        </mxCell>
        <mxCell id="w1tVW2Rco9mWPTWuxNKv-77" value="Меньше" style="text;html=1;align=center;verticalAlign=middle;whiteSpace=wrap;rounded=0;" vertex="1" parent="WIyWlLk6GJQsqaUBKTNV-1">
          <mxGeometry x="-440" y="1730" width="60" height="30" as="geometry" />
        </mxCell>
        <mxCell id="w1tVW2Rco9mWPTWuxNKv-78" value="" style="endArrow=none;html=1;rounded=0;entryX=0.5;entryY=1;entryDx=0;entryDy=0;" edge="1" parent="WIyWlLk6GJQsqaUBKTNV-1" target="w1tVW2Rco9mWPTWuxNKv-74">
          <mxGeometry width="50" height="50" relative="1" as="geometry">
            <mxPoint x="-450" y="1880" as="sourcePoint" />
            <mxPoint x="120" y="1620" as="targetPoint" />
          </mxGeometry>
        </mxCell>
        <mxCell id="w1tVW2Rco9mWPTWuxNKv-79" value="11&amp;lt;40?" style="rounded=1;whiteSpace=wrap;html=1;" vertex="1" parent="WIyWlLk6GJQsqaUBKTNV-1">
          <mxGeometry x="-510" y="1880" width="120" height="60" as="geometry" />
        </mxCell>
        <mxCell id="w1tVW2Rco9mWPTWuxNKv-80" value="" style="endArrow=none;html=1;rounded=0;entryX=0.5;entryY=1;entryDx=0;entryDy=0;" edge="1" parent="WIyWlLk6GJQsqaUBKTNV-1" target="w1tVW2Rco9mWPTWuxNKv-79">
          <mxGeometry width="50" height="50" relative="1" as="geometry">
            <mxPoint x="-450" y="2020" as="sourcePoint" />
            <mxPoint x="120" y="1830" as="targetPoint" />
          </mxGeometry>
        </mxCell>
        <mxCell id="w1tVW2Rco9mWPTWuxNKv-86" style="edgeStyle=orthogonalEdgeStyle;rounded=0;orthogonalLoop=1;jettySize=auto;html=1;exitX=0.5;exitY=1;exitDx=0;exitDy=0;" edge="1" parent="WIyWlLk6GJQsqaUBKTNV-1" source="w1tVW2Rco9mWPTWuxNKv-82">
          <mxGeometry relative="1" as="geometry">
            <mxPoint x="-520.2105263157894" y="2130" as="targetPoint" />
          </mxGeometry>
        </mxCell>
        <mxCell id="w1tVW2Rco9mWPTWuxNKv-82" value="x=40" style="rhombus;whiteSpace=wrap;html=1;" vertex="1" parent="WIyWlLk6GJQsqaUBKTNV-1">
          <mxGeometry x="-560" y="1980" width="80" height="80" as="geometry" />
        </mxCell>
        <mxCell id="w1tVW2Rco9mWPTWuxNKv-83" value="" style="endArrow=none;html=1;rounded=0;entryX=1;entryY=0.5;entryDx=0;entryDy=0;" edge="1" parent="WIyWlLk6GJQsqaUBKTNV-1" target="w1tVW2Rco9mWPTWuxNKv-82">
          <mxGeometry width="50" height="50" relative="1" as="geometry">
            <mxPoint x="-450" y="2020" as="sourcePoint" />
            <mxPoint x="120" y="1830" as="targetPoint" />
          </mxGeometry>
        </mxCell>
        <mxCell id="w1tVW2Rco9mWPTWuxNKv-85" value="Меньше" style="text;html=1;align=center;verticalAlign=middle;whiteSpace=wrap;rounded=0;" vertex="1" parent="WIyWlLk6GJQsqaUBKTNV-1">
          <mxGeometry x="-510" y="1960" width="60" height="30" as="geometry" />
        </mxCell>
        <mxCell id="w1tVW2Rco9mWPTWuxNKv-87" value="" style="endArrow=none;html=1;rounded=0;entryX=1;entryY=0.5;entryDx=0;entryDy=0;" edge="1" parent="WIyWlLk6GJQsqaUBKTNV-1" target="w1tVW2Rco9mWPTWuxNKv-11">
          <mxGeometry width="50" height="50" relative="1" as="geometry">
            <mxPoint x="80" y="320" as="sourcePoint" />
            <mxPoint x="120" y="350" as="targetPoint" />
          </mxGeometry>
        </mxCell>
        <mxCell id="w1tVW2Rco9mWPTWuxNKv-88" value="40&amp;lt;4?" style="rounded=1;whiteSpace=wrap;html=1;" vertex="1" parent="WIyWlLk6GJQsqaUBKTNV-1">
          <mxGeometry x="-580" y="2110" width="120" height="60" as="geometry" />
        </mxCell>
        <mxCell id="w1tVW2Rco9mWPTWuxNKv-89" value="" style="endArrow=none;html=1;rounded=0;entryX=0.5;entryY=1;entryDx=0;entryDy=0;" edge="1" parent="WIyWlLk6GJQsqaUBKTNV-1" target="w1tVW2Rco9mWPTWuxNKv-88">
          <mxGeometry width="50" height="50" relative="1" as="geometry">
            <mxPoint x="-520" y="2230" as="sourcePoint" />
            <mxPoint x="-150" y="2050" as="targetPoint" />
          </mxGeometry>
        </mxCell>
        <mxCell id="w1tVW2Rco9mWPTWuxNKv-90" value="x=40" style="rhombus;whiteSpace=wrap;html=1;" vertex="1" parent="WIyWlLk6GJQsqaUBKTNV-1">
          <mxGeometry x="-560" y="2210" width="80" height="80" as="geometry" />
        </mxCell>
        <mxCell id="w1tVW2Rco9mWPTWuxNKv-91" value="Больше" style="text;html=1;align=center;verticalAlign=middle;whiteSpace=wrap;rounded=0;" vertex="1" parent="WIyWlLk6GJQsqaUBKTNV-1">
          <mxGeometry x="-590" y="2180" width="60" height="30" as="geometry" />
        </mxCell>
        <mxCell id="w1tVW2Rco9mWPTWuxNKv-92" value="" style="endArrow=none;html=1;rounded=0;entryX=1;entryY=0.5;entryDx=0;entryDy=0;" edge="1" parent="WIyWlLk6GJQsqaUBKTNV-1" target="w1tVW2Rco9mWPTWuxNKv-90">
          <mxGeometry width="50" height="50" relative="1" as="geometry">
            <mxPoint x="-250" y="2250" as="sourcePoint" />
            <mxPoint x="-150" y="2050" as="targetPoint" />
          </mxGeometry>
        </mxCell>
        <mxCell id="w1tVW2Rco9mWPTWuxNKv-96" style="edgeStyle=orthogonalEdgeStyle;rounded=0;orthogonalLoop=1;jettySize=auto;html=1;exitX=0.5;exitY=0;exitDx=0;exitDy=0;entryX=0.5;entryY=1;entryDx=0;entryDy=0;" edge="1" parent="WIyWlLk6GJQsqaUBKTNV-1" source="w1tVW2Rco9mWPTWuxNKv-93" target="w1tVW2Rco9mWPTWuxNKv-95">
          <mxGeometry relative="1" as="geometry" />
        </mxCell>
        <mxCell id="w1tVW2Rco9mWPTWuxNKv-93" value="Вывод на экран числа" style="ellipse;whiteSpace=wrap;html=1;" vertex="1" parent="WIyWlLk6GJQsqaUBKTNV-1">
          <mxGeometry x="-260" y="2210" width="120" height="80" as="geometry" />
        </mxCell>
        <mxCell id="w1tVW2Rco9mWPTWuxNKv-95" value="break" style="whiteSpace=wrap;html=1;aspect=fixed;" vertex="1" parent="WIyWlLk6GJQsqaUBKTNV-1">
          <mxGeometry x="-270" y="1935" width="140" height="140" as="geometry" />
        </mxCell>
      </root>
    </mxGraphModel>
  </diagram>
</mxfile>
